<svg xmlns="http://www.w3.org/2000/svg"><symbol id="mecha-stilts" viewBox="0 0 256 256"><path d="M127.9 5.3l105.8 61v122.2l-105.8 61.1-105.8-61.1V66.3l105.8-61z"/><path fill="#fff" d="M66.5 172.6a2 2 0 0 1 0-4h10v-12.7h-10a1.9 1.9 0 0 1-2-2v-39.5a1.9 1.9 0 0 1 2-2h13.2c1-28.5 22.3-44.1 48.2-44.1S175 83.9 176 112.4h13.2a1.9 1.9 0 0 1 2 2v39.5a1.9 1.9 0 0 1-2 2h-10v12.6h10a2 2 0 1 1 0 4zm2-56.2v35.5h118.8v-35.5zm12 39.5v12.6h12.9v-12.6zm3.2-43.5H172c-1-25.9-20.7-40.1-44.1-40.1s-43.2 14.2-44.2 40.1zm13.6 43.5v12.6h20.1v-12.6zm24.1 0v12.6h12.8v-12.6zm54.4-13.6h-49a2 2 0 1 1 0-4h49a2 2 0 0 1 0 4zm-37.5 13.6v12.6h20.1v-12.6zm24.1 0v12.6h12.8v-12.6z"/></symbol><symbol id="space-bubbles" viewBox="0 0 256 256"><path d="M128.2 5.5L234 66.6v122.2l-105.8 61.1-105.8-61.1V66.6L128.2 5.5z"/><path fill="#fff" d="M68.4 177.3l-4.6-6.6a2.1 2.1 0 0 1 .2-2.4l16.7-19.7h-8.3a1.9 1.9 0 0 1-2-2v-14.5a1.9 1.9 0 0 1 2-2h11.7a56.1 56.1 0 0 1-2.2-15.2 47.5 47.5 0 0 1 94.9 0 49.2 49.2 0 0 1-2.2 15.2h11.6a1.9 1.9 0 0 1 2 2v14.4a1.9 1.9 0 0 1-2 2h-10.3l16.5 19.7a2.1 2.1 0 0 1 0 2.4l-4.6 6.6a2.1 2.1 0 0 1-2.6.6l-9.6-5h-95l-9.6 5a2.2 2.2 0 0 1-2.6-.5zm30.5-28.7H85.7L68 169.4l2.8 4 33.9-17.9zm-24.5-14.5v10.4h109.8v-10.4zm13.8-4h82.1a48.5 48.5 0 0 0 2.4-15.2 43.4 43.4 0 0 0-86.9 0c.1 5.2.5 10.6 2.5 15.2zm19.3 28.7l-19.1 10h27.3zm-3.4-10.2l16.9 20.2h14.4l16.9-20.3zm44.7 10.2l-8.2 10h27.3zm21.9-10.2h-13.2l-6 7 34.1 17.9 2.8-3.8z"/></symbol><symbol id="super-domes" viewBox="0 0 256 256"><path d="M127.9 6.3l105.8 61v122.2l-105.8 61.1-105.8-61.1V67.3l105.8-61z"/><path fill="#fff" d="M69.9 173.6a1.9 1.9 0 0 1-2-2v-24.3H41.4a2 2 0 0 1 0-4h15v-13a1.9 1.9 0 0 1 2-2h7.8a63.6 63.6 0 0 1 61.4-48.8c.2-.2.4-.2.8 0 29.7.2 54.4 21.1 61 48.8h7.8a1.9 1.9 0 0 1 2 2v13h15a2 2 0 1 1 0 4h-26.3v24.3a1.9 1.9 0 0 1-2 2zm-9.4-41.3v11h134.8v-11zm63.4-48.6c-25.7 1.6-47.2 20.3-53.4 44.5H92zm-52 63.6v22.3h54v-22.3zm54-59.6L97 128.2h28.9zm4-4.2v44.7h55.4a59.6 59.6 0 0 0-55.4-44.7zm0 63.8v22.3h9v-22.3zm13 0v22.3h40.9v-22.3z"/></symbol></svg>