<svg xmlns="http://www.w3.org/2000/svg"><symbol id="mecha-stilts" viewBox="0 0 256 256"><path d="M80.5 155.9h12.8v12.64H80.5zm16.9 0h20.1v12.64H97.4zm24.1 0h12.8v12.64h-12.8zm16.8 0h20.1v12.64h-20.1zm33.7-43.5H83.8c1-25.9 20.7-40.1 44.1-40.1S171 86.5 172 112.4zm-9.6 43.5h12.8v12.64h-12.8zm-93.9-39.5h118.8v35.52H68.5z"/><path d="M127.9 5.3l-105.8 61v122.2l105.8 61.1 105.8-61.1V66.3zM191.3 154a1.9 1.9 0 0 1-2 2h-10v12.6h10a2 2 0 0 1 0 4H66.5a2 2 0 1 1 0-4h10v-12.7h-10a1.9 1.9 0 0 1-2-2v-39.5a1.9 1.9 0 0 1 2-2h13.2c1-28.5 22.3-44.1 48.2-44.1S175 83.9 176 112.4h13.2a1.9 1.9 0 0 1 2 2z"/><path fill="#fff" d="M175.8 138.3h-49a2 2 0 1 0 0 4h49a2 2 0 0 0 0-4zm0 0h-49a2 2 0 1 0 0 4h49a2 2 0 0 0 0-4zm0 0h-49a2 2 0 1 0 0 4h49a2 2 0 0 0 0-4z"/></symbol><symbol id="space-bubbles" viewBox="0 0 256 256"><path d="M104.7 155.6l-33.9 17.8-2.8-4 17.7-20.8h13.2l5.8 7zm2.8 3.2l8.3 10H88.5l19-10zm44.8-10.2l-16.9 20.2H121l-16.9-20.2h48.2zm-3.4 10.2l19 10h-27.3l8.3-10zm-60.6-28.7c-2-4.6-2.4-10-2.4-15.2a43.4 43.4 0 0 1 86.9 0 48.7 48.7 0 0 1-2.4 15.3zm-13.9 4h109.8v10.43H74.4zm96.3 14.5l17.7 21-2.8 3.8-34.1-17.8 6-7h13.2z"/><path d="M128.2 5.5L22.4 66.6v122.2l105.8 61.1L234 188.8V66.6zm64.2 165.1l-4.6 6.6a2.1 2.1 0 0 1-2.6.6l-9.6-5h-95l-9.6 5a2.2 2.2 0 0 1-2.6-.6l-4.6-6.6a2.1 2.1 0 0 1 .2-2.4l16.7-19.7h-8.3a1.9 1.9 0 0 1-2-2v-14.4a1.9 1.9 0 0 1 2-2H84a56.3 56.3 0 0 1-2.2-15.2 47.5 47.5 0 0 1 94.9 0 49.1 49.1 0 0 1-2.2 15.3h11.6a1.9 1.9 0 0 1 2 2v14.5a1.9 1.9 0 0 1-2 2H176l16.5 19.7a2.1 2.1 0 0 1-.1 2.2z"/></symbol><symbol id="super-domes" viewBox="0 0 256 256"><path d="M123.9 83.7L92 128.2H70.5c6.2-24.3 27.7-42.9 53.4-44.5zm2 4v40.5H97l28.9-40.5zm-54 59.6h54v22.27h-54zm58 0h9v22.27h-9zm13 0h40.9v22.27h-40.9zm42.4-19.1h-55.4V83.5a59.6 59.6 0 0 1 55.4 44.7zm-124.8 4h134.8v11.04H60.5z"/><path d="M127.9 6.3l-105.8 61v122.2l105.8 61.1 105.8-61.1V67.3zm86.5 141h-26.5v24.3a1.9 1.9 0 0 1-2 2h-116a1.9 1.9 0 0 1-2-2v-24.3H41.4a2 2 0 1 1 0-4h15.1v-13a1.9 1.9 0 0 1 2-2h7.8a63.6 63.6 0 0 1 61.4-48.8c.2-.2.4-.2.8 0 29.7.2 54.4 21.1 61 48.8h7.8a1.9 1.9 0 0 1 2 2v13h15a2 2 0 0 1 0 4z"/></symbol></svg>